<?xml version="1.0" encoding="utf-8"?>
<!-- Generator: Adobe Illustrator 24.0.1, SVG Export Plug-In . SVG Version: 6.00 Build 0)  -->
<svg version="1.1" xmlns="http://www.w3.org/2000/svg" xmlns:xlink="http://www.w3.org/1999/xlink" x="0px" y="0px"
	 viewBox="0 0 750 500" style="enable-background:new 0 0 750 500;" xml:space="preserve">
<style type="text/css">
	.st0{fill:#E9FDFF;}
	.st1{opacity:0.37;fill:url(#SVGID_1_);}
	.st2{opacity:0.37;fill:url(#SVGID_2_);}
	.st3{fill:url(#SVGID_3_);}
	.st4{fill:url(#SVGID_4_);}
	.st5{fill:url(#SVGID_5_);}
	.st6{fill:url(#SVGID_6_);}
	.st7{fill:url(#SVGID_7_);}
	.st8{fill:url(#SVGID_8_);}
	.st9{fill:url(#SVGID_9_);}
	.st10{fill:#111023;}
	.st11{fill:url(#SVGID_10_);}
	.st12{fill:url(#SVGID_11_);}
	.st13{fill:url(#SVGID_12_);}
	.st14{fill:url(#SVGID_13_);}
	.st15{fill:url(#SVGID_14_);}
	.st16{fill:url(#SVGID_15_);}
	.st17{fill:url(#SVGID_16_);}
	.st18{fill:#5B2B89;}
	.st19{fill:url(#SVGID_17_);}
	.st20{fill:url(#SVGID_18_);}
	.st21{fill:url(#SVGID_19_);}
	.st22{fill:url(#SVGID_20_);}
	.st23{fill:url(#SVGID_21_);}
	.st24{opacity:0.38;fill:url(#SVGID_22_);}
	.st25{fill:url(#SVGID_23_);}
	.st26{fill:#F79244;}
	.st27{fill:#FFFFFF;}
	.st28{opacity:0.5;fill:url(#SVGID_24_);}
	.st29{fill:url(#SVGID_25_);}
	.st30{fill:url(#SVGID_26_);}
	.st31{fill:url(#SVGID_27_);}
	.st32{fill:url(#SVGID_28_);}
	.st33{fill:#2A2A2A;}
	.st34{fill:url(#SVGID_29_);}
	.st35{fill:#112129;}
</style>
<g id="BACKGROUND">
	<rect id="XMLID_1_" class="st0" width="750" height="500"/>
</g>
<g id="OBJECTS">
	<g>
		<linearGradient id="SVGID_1_" gradientUnits="userSpaceOnUse" x1="387.9164" y1="387.4633" x2="404.0962" y2="143.1487">
			<stop  offset="0" style="stop-color:#31D1D6"/>
			<stop  offset="0.3733" style="stop-color:#32CED8"/>
			<stop  offset="0.6175" style="stop-color:#36C6DF"/>
			<stop  offset="0.824" style="stop-color:#3CB7EB"/>
			<stop  offset="1" style="stop-color:#45A3FA"/>
		</linearGradient>
		<path class="st1" d="M204.16,373.45h-51.48c-13.78-14.31-17.46-37.12-9.23-55.2c7.84-17.23,24.69-28.62,34.89-44.57
			c21.78-34.04,11.25-84.75,40.84-112.27c14.79-13.76,36.06-17.73,56.2-19.34c20.14-1.61,40.95-1.56,59.57-9.39
			c22.96-9.65,40.27-30.38,63.93-38.19c26.56-8.77,58.33,2.17,73.85,25.44c9.71,14.56,13.38,32.85,24.86,46.06
			c18.57,21.35,51.29,23.01,74.45,39.27c15.89,11.15,26.61,29.37,28.66,48.67c2.47,23.31-6.38,49.78,7.6,68.59
			c6.81,9.17,17.86,14.35,25.2,23.1c7.32,8.73,9.38,16.68,7.07,27.83H204.16z"/>
		<linearGradient id="SVGID_2_" gradientUnits="userSpaceOnUse" x1="401.0737" y1="387.4633" x2="417.2535" y2="143.1487">
			<stop  offset="0" style="stop-color:#31D1D6"/>
			<stop  offset="0.3733" style="stop-color:#32CED8"/>
			<stop  offset="0.6175" style="stop-color:#36C6DF"/>
			<stop  offset="0.824" style="stop-color:#3CB7EB"/>
			<stop  offset="1" style="stop-color:#45A3FA"/>
		</linearGradient>
		<path class="st2" d="M217.32,373.45h-51.48c-13.78-14.31-17.46-37.12-9.23-55.2c7.84-17.23,24.69-28.62,34.89-44.57
			c21.78-34.04,11.25-84.75,40.84-112.27c14.79-13.76,36.06-17.73,56.2-19.34s40.95-1.56,59.57-9.39
			c22.96-9.65,40.27-30.38,63.93-38.19c26.56-8.77,58.33,2.17,73.85,25.44c9.71,14.56,13.38,32.85,24.86,46.06
			c18.57,21.35,51.29,23.01,74.45,39.27c15.89,11.15,26.61,29.37,28.66,48.67c2.47,23.31-6.38,49.78,7.6,68.59
			c6.81,9.17,17.86,14.35,25.2,23.1c7.32,8.73,9.38,16.68,7.07,27.83H217.32z"/>
	</g>
	<linearGradient id="SVGID_3_" gradientUnits="userSpaceOnUse" x1="238.6703" y1="197.9663" x2="238.6703" y2="155.3596">
		<stop  offset="0" style="stop-color:#F9E6D9"/>
		<stop  offset="0.121" style="stop-color:#FCF1EA"/>
		<stop  offset="0.2698" style="stop-color:#FEF9F6"/>
		<stop  offset="0.4751" style="stop-color:#FFFEFD"/>
		<stop  offset="1" style="stop-color:#FFFFFF"/>
	</linearGradient>
	<path class="st3" d="M335.81,197.16l-2.12,0.07H142.23l-0.46,0.06c-1.9-12.7,8.04-25.6,20.55-29.02
		c10.94-2.99,23.74-0.33,32.9-7.02c8.21-5.99,10.25-17.19,15.62-25.82c3.34-5.37,8.1-9.85,13.67-12.84
		c6.98-3.75,15.69-5.06,22.85-1.67c12.68,6.02,15.11,22.82,23.59,34.01c1.89,2.5,4.27,4.83,7.3,5.66c2.79,0.77,5.75,0.17,8.61-0.34
		c9.37-1.65,20.61-1.5,26.44,6.02c2.74,3.54,3.72,8.08,5.24,12.28c1.52,4.21,4.01,8.53,8.22,10.04c2.02,0.71,4.31,0.73,6.09,1.92
		C334.99,191.94,335.68,194.49,335.81,197.16z"/>
	<linearGradient id="SVGID_4_" gradientUnits="userSpaceOnUse" x1="530.7737" y1="227.8753" x2="533.4703" y2="186.3472">
		<stop  offset="0" style="stop-color:#F9E6D9"/>
		<stop  offset="0.121" style="stop-color:#FCF1EA"/>
		<stop  offset="0.2698" style="stop-color:#FEF9F6"/>
		<stop  offset="0.4751" style="stop-color:#FFFEFD"/>
		<stop  offset="1" style="stop-color:#FFFFFF"/>
	</linearGradient>
	<path class="st4" d="M643.77,221.34H420.5c-1.78-2.34-2-5.96-0.73-8.74c1.65-3.65,5.09-6.13,8.52-8.19
		c3.43-2.07,7.08-3.97,9.65-7.04c4.93-5.89,4.64-14.34,5.73-21.94c1.28-9.02,5.06-17.95,11.88-24c2.7-2.4,5.83-4.3,9.11-5.82
		c9.35-4.35,20.93-5.44,29.67,0.04c8.36,5.24,12.46,15.21,19.75,21.86c1.72,1.58,3.69,2.99,5.97,3.52
		c6.53,1.5,12.08-4.42,16.98-8.99c6.96-6.49,16.26-11.34,25.7-10.13c11.1,1.44,19.68,10.96,23.89,21.33c1.76,4.32,3.1,9.1,6.6,12.17
		c8.98,7.87,24.14-0.95,34.61,4.77c3.93,2.15,6.56,6.06,8.66,10.02C639.99,206.81,642.46,213.97,643.77,221.34z"/>
	<g>
		<linearGradient id="SVGID_5_" gradientUnits="userSpaceOnUse" x1="218.2585" y1="300.5156" x2="331.3926" y2="300.5156">
			<stop  offset="0" style="stop-color:#31D1D6"/>
			<stop  offset="0.3733" style="stop-color:#32CED8"/>
			<stop  offset="0.6175" style="stop-color:#36C6DF"/>
			<stop  offset="0.824" style="stop-color:#3CB7EB"/>
			<stop  offset="1" style="stop-color:#45A3FA"/>
		</linearGradient>
		<path class="st5" d="M331.39,345.21h-16.06v28.23h-38.91v-28.23h-58.16v-28.93l60.66-88.69h36.41v88.19h16.06V345.21z
			 M276.42,315.78v-16.96c0-3.19,0.12-7.5,0.35-12.92c0.23-5.42,0.41-8.26,0.55-8.53h-1.1c-2.26,5.12-4.82,9.91-7.68,14.37
			l-16.16,24.04H276.42z"/>
		<linearGradient id="SVGID_6_" gradientUnits="userSpaceOnUse" x1="265.2303" y1="383.0508" x2="264.1516" y2="328.0396">
			<stop  offset="0" style="stop-color:#F9E6D9"/>
			<stop  offset="0.121" style="stop-color:#FCF1EA"/>
			<stop  offset="0.2698" style="stop-color:#FEF9F6"/>
			<stop  offset="0.4751" style="stop-color:#FFFEFD"/>
			<stop  offset="1" style="stop-color:#FFFFFF"/>
		</linearGradient>
		<path class="st6" d="M320.77,345.22H304.7v28.23H265.8v-28.23h-58.16v-28.93l60.66-88.69h36.41v88.19h16.06V345.22z M265.8,315.79
			v-16.96c0-3.19,0.12-7.5,0.35-12.92c0.23-5.42,0.41-8.26,0.55-8.53h-1.1c-2.26,5.12-4.82,9.91-7.68,14.37l-16.16,24.04H265.8z"/>
	</g>
	<g>
		
			<linearGradient id="SVGID_7_" gradientUnits="userSpaceOnUse" x1="462.0378" y1="311.1027" x2="575.1755" y2="311.1027" gradientTransform="matrix(0.9818 -0.1899 0.1899 0.9818 -47.317 104.3219)">
			<stop  offset="0" style="stop-color:#31D1D6"/>
			<stop  offset="0.3733" style="stop-color:#32CED8"/>
			<stop  offset="0.6175" style="stop-color:#36C6DF"/>
			<stop  offset="0.824" style="stop-color:#3CB7EB"/>
			<stop  offset="1" style="stop-color:#45A3FA"/>
		</linearGradient>
		<path class="st7" d="M585.29,346.19l-5.59-28.9l-10.43,2.02l-5.34,1.03l-16.74-86.59l-35.76,6.92l-42.71,98.59l5.49,28.41
			l57.11-11.05l3.25,16.83h39.63l-4.68-24.21l5.34-1.03L585.29,346.19z M515.3,329.75l-13.17,2.54l9.4-22.18l1.9-4.49
			c1.96-4.92,3.56-10.11,4.81-15.57l1.08-0.2c-0.08,0.28,0.28,3.11,1.08,8.48c0.8,5.36,1.5,9.61,2.11,12.75l3.22,16.65L515.3,329.75
			z"/>
		<linearGradient id="SVGID_8_" gradientUnits="userSpaceOnUse" x1="517.233" y1="378.1096" x2="516.1544" y2="323.0983">
			<stop  offset="0" style="stop-color:#F9E6D9"/>
			<stop  offset="0.121" style="stop-color:#FCF1EA"/>
			<stop  offset="0.2698" style="stop-color:#FEF9F6"/>
			<stop  offset="0.4751" style="stop-color:#FFFEFD"/>
			<stop  offset="1" style="stop-color:#FFFFFF"/>
		</linearGradient>
		<path class="st8" d="M574.86,348.21l-5.59-28.89l-15.77,3.05l-16.75-86.59l-25.32,4.89L501,242.69l-42.71,98.6l5.49,28.4
			l10.43-2.02l46.68-9.02l2.86,14.8h39.63l-4.29-22.19l10.43-2.02L574.86,348.21z M511.53,310.11c0.19,1.09,0.38,2.08,0.55,2.99
			l3.22,16.65l-23.61,4.57L503,307.64c1.96-4.91,3.56-10.1,4.81-15.56l1.08-0.21c-0.08,0.29,0.28,3.12,1.08,8.48
			C510.54,304.17,511.06,307.43,511.53,310.11z"/>
	</g>
	<g id="XMLID_2_">
		<g>
			<linearGradient id="SVGID_9_" gradientUnits="userSpaceOnUse" x1="290.2558" y1="231.047" x2="322.2558" y2="222.7774">
				<stop  offset="0" style="stop-color:#31D1D6"/>
				<stop  offset="0.3733" style="stop-color:#32CED8"/>
				<stop  offset="0.6175" style="stop-color:#36C6DF"/>
				<stop  offset="0.824" style="stop-color:#3CB7EB"/>
				<stop  offset="1" style="stop-color:#45A3FA"/>
			</linearGradient>
			<path class="st9" d="M336.82,299.47l-23.75,0l-15.09-110.49c0,0-21.8-23.82-46.83-28.28l23.84-2.57l53.73,1.46L336.82,299.47z"/>
			<path class="st10" d="M243.07,238.73c0,0-13.5,19.76-7.51,36.72l25.11-36.72l-3.26-4.38L243.07,238.73z"/>
			<path class="st10" d="M313.07,299.47l-0.81,5.1c0,0-7.16,1-7.56,11.22h18.61l10.11-9.87l0.94-6.45H313.07z"/>
			<linearGradient id="SVGID_10_" gradientUnits="userSpaceOnUse" x1="226.7384" y1="200.6536" x2="297.9775" y2="200.6536">
				<stop  offset="0" style="stop-color:#31D1D6"/>
				<stop  offset="0.3733" style="stop-color:#32CED8"/>
				<stop  offset="0.6175" style="stop-color:#36C6DF"/>
				<stop  offset="0.824" style="stop-color:#3CB7EB"/>
				<stop  offset="1" style="stop-color:#45A3FA"/>
			</linearGradient>
			<path class="st11" d="M284.33,188.9l-29.77-1.11l4.84,45.59l-20.18,7.23l-11.63-56.3c-3.4-10.49,3.71-21.46,14.67-22.65
				l8.87-0.96h0.01c25.03,4.46,46.83,28.28,46.83,28.28L284.33,188.9z"/>
		</g>
		<g>
			<linearGradient id="SVGID_11_" gradientUnits="userSpaceOnUse" x1="177.1385" y1="58.9747" x2="229.5139" y2="58.9747">
				<stop  offset="0" style="stop-color:#51ADC6"/>
				<stop  offset="6.081700e-03" style="stop-color:#55AFC4"/>
				<stop  offset="0.0663" style="stop-color:#74BFB5"/>
				<stop  offset="0.1333" style="stop-color:#8FCDA7"/>
				<stop  offset="0.2102" style="stop-color:#A5D89D"/>
				<stop  offset="0.3001" style="stop-color:#B6E094"/>
				<stop  offset="0.4112" style="stop-color:#C1E78E"/>
				<stop  offset="0.5672" style="stop-color:#C8EA8B"/>
				<stop  offset="1" style="stop-color:#CAEB8A"/>
			</linearGradient>
			<path class="st12" d="M229.51,61.65v1.33l-1.61,0.21c-0.41-0.89-0.86-1.6-1.3-1.99c-2.15-1.86-3.65-3.32-5.19-2.43
				c-1.16,0.68-1.07,3.86-0.96,5.36l-4.39,0.56l-38.9,4.93l-0.02-0.07c2.52-0.6,4.48-5.12,4.48-10.62c0-5.43-1.9-9.9-4.37-10.6
				l52.27,5.9v1.05V61.65z"/>
			<linearGradient id="SVGID_12_" gradientUnits="userSpaceOnUse" x1="180.0508" y1="52.9203" x2="171.5755" y2="52.9203">
				<stop  offset="0" style="stop-color:#8AEBD6"/>
				<stop  offset="0.4615" style="stop-color:#89E9D7"/>
				<stop  offset="0.6276" style="stop-color:#84E2DA"/>
				<stop  offset="0.7461" style="stop-color:#7DD7DE"/>
				<stop  offset="0.8419" style="stop-color:#72C6E5"/>
				<stop  offset="0.9229" style="stop-color:#64B0EE"/>
				<stop  offset="0.9944" style="stop-color:#5395F9"/>
				<stop  offset="1" style="stop-color:#5193FA"/>
			</linearGradient>
			<path class="st13" d="M180.05,51.18c-0.11,0.16-0.21,0.32-0.3,0.5c-0.56,1.08-0.82,2.32-1.51,3.31c-0.5,0.74-1.24,1.31-2.06,1.63
				c-0.87,0.34-1.83,0.4-2.77,0.52c-0.62,0.08-1.26,0.21-1.83,0.47c0.3-5.19,2.34-9.23,4.86-9.37l0.81,0.09
				C178.33,48.63,179.3,49.66,180.05,51.18z"/>
			<linearGradient id="SVGID_13_" gradientUnits="userSpaceOnUse" x1="181.6015" y1="57.9919" x2="171.5304" y2="57.9919">
				<stop  offset="0" style="stop-color:#31D1D6"/>
				<stop  offset="0.3733" style="stop-color:#32CED8"/>
				<stop  offset="0.6175" style="stop-color:#36C6DF"/>
				<stop  offset="0.824" style="stop-color:#3CB7EB"/>
				<stop  offset="1" style="stop-color:#45A3FA"/>
			</linearGradient>
			<path class="st14" d="M181.6,58.06c-0.02,0.02-0.03,0.04-0.05,0.05c-0.64,0.86-0.95,1.93-1.54,2.81
				c-0.69,1.04-1.8,1.79-3.02,2.07c-1.13,0.25-2.34,0.12-3.37,0.63c-0.52,0.27-0.95,0.69-1.26,1.18c-0.52-1.69-0.83-3.71-0.83-5.88
				c0-0.45,0.01-0.89,0.05-1.33c0.57-0.26,1.21-0.39,1.83-0.47c0.94-0.13,1.89-0.18,2.77-0.52c0.83-0.32,1.56-0.89,2.06-1.63
				c0.69-0.99,0.96-2.23,1.51-3.31c0.09-0.17,0.19-0.33,0.3-0.5C180.93,52.94,181.5,55.35,181.6,58.06z"/>
			<linearGradient id="SVGID_14_" gradientUnits="userSpaceOnUse" x1="181.6196" y1="63.8389" x2="172.3599" y2="63.8389">
				<stop  offset="0" style="stop-color:#8AEBD6"/>
				<stop  offset="0.4615" style="stop-color:#89E9D7"/>
				<stop  offset="0.6276" style="stop-color:#84E2DA"/>
				<stop  offset="0.7461" style="stop-color:#7DD7DE"/>
				<stop  offset="0.8419" style="stop-color:#72C6E5"/>
				<stop  offset="0.9229" style="stop-color:#64B0EE"/>
				<stop  offset="0.9944" style="stop-color:#5395F9"/>
				<stop  offset="1" style="stop-color:#5193FA"/>
			</linearGradient>
			<path class="st15" d="M181.62,58.93c0,5.5-1.96,10.03-4.48,10.62c-0.18,0.05-0.38,0.07-0.57,0.07c-1.76,0-3.31-1.91-4.21-4.81
				c0.32-0.5,0.74-0.91,1.26-1.18c1.03-0.51,2.25-0.38,3.37-0.63c1.22-0.28,2.33-1.04,3.02-2.07c0.6-0.88,0.9-1.96,1.54-2.81
				c0.02-0.02,0.03-0.04,0.05-0.05C181.61,58.34,181.62,58.63,181.62,58.93z"/>
			<path class="st10" d="M260.31,56.31h15.72c-1.64,0.66-3.04,1.41-3.67,2c-0.5,0.46-0.28,1.3,0.33,2.37h-12.39V56.31z"/>
			<path class="st10" d="M295.16,58.95v1.74h-8.52c-0.82-1.89-1.43-3.49-1.64-4.37h10.16V58.95z"/>
			<linearGradient id="SVGID_15_" gradientUnits="userSpaceOnUse" x1="229.5139" y1="58.4653" x2="260.3134" y2="58.4653">
				<stop  offset="0" style="stop-color:#31D1D6"/>
				<stop  offset="0.3733" style="stop-color:#32CED8"/>
				<stop  offset="0.6175" style="stop-color:#36C6DF"/>
				<stop  offset="0.824" style="stop-color:#3CB7EB"/>
				<stop  offset="1" style="stop-color:#45A3FA"/>
			</linearGradient>
			<polygon class="st16" points="260.31,60.69 260.31,61.65 229.51,61.65 229.51,55.28 260.31,55.28 260.31,56.31 			"/>
			<linearGradient id="SVGID_16_" gradientUnits="userSpaceOnUse" x1="216.0428" y1="68.0998" x2="230.7311" y2="68.0998">
				<stop  offset="0" style="stop-color:#F7BE86"/>
				<stop  offset="0.3293" style="stop-color:#F7BC83"/>
				<stop  offset="0.5448" style="stop-color:#F7B67B"/>
				<stop  offset="0.7276" style="stop-color:#F7AC6C"/>
				<stop  offset="0.8912" style="stop-color:#F79E57"/>
				<stop  offset="1" style="stop-color:#F79244"/>
			</linearGradient>
			<path class="st17" d="M230.73,72.54l-6.78,5.16c0,0-8.23-8.63-7.9-13.01l4.39-0.56c-0.11-1.51-0.2-4.69,0.96-5.36
				c1.54-0.89,3.04,0.57,5.19,2.43c0.44,0.39,0.88,1.1,1.3,1.99C229.49,66.58,230.73,72.54,230.73,72.54z"/>
			<path class="st18" d="M185.11,48.37c-0.45-0.99-1.92-0.14-1.47,0.84c2.79,6.1,2.43,12.81-0.91,18.62
				c-0.54,0.94,0.92,1.79,1.46,0.85C187.84,62.33,188.14,55.01,185.11,48.37z"/>
		</g>
		<g>
			<linearGradient id="SVGID_17_" gradientUnits="userSpaceOnUse" x1="302.7981" y1="79.3268" x2="302.3118" y2="96.9946">
				<stop  offset="0" style="stop-color:#7B6ED6"/>
				<stop  offset="0.4804" style="stop-color:#796DD5"/>
				<stop  offset="0.6535" style="stop-color:#7268D0"/>
				<stop  offset="0.7768" style="stop-color:#6760C9"/>
				<stop  offset="0.8765" style="stop-color:#5655BE"/>
				<stop  offset="0.961" style="stop-color:#4047B0"/>
				<stop  offset="1" style="stop-color:#333EA8"/>
			</linearGradient>
			<polygon class="st19" points="305.86,79.35 305.86,84.58 299.61,78.67 			"/>
			<linearGradient id="SVGID_18_" gradientUnits="userSpaceOnUse" x1="314.7052" y1="79.5593" x2="313.4085" y2="120.568">
				<stop  offset="0" style="stop-color:#7B6ED6"/>
				<stop  offset="0.4804" style="stop-color:#796DD5"/>
				<stop  offset="0.6535" style="stop-color:#7268D0"/>
				<stop  offset="0.7768" style="stop-color:#6760C9"/>
				<stop  offset="0.8765" style="stop-color:#5655BE"/>
				<stop  offset="0.961" style="stop-color:#4047B0"/>
				<stop  offset="1" style="stop-color:#333EA8"/>
			</linearGradient>
			<path class="st20" d="M305.86,84.58l6.3,5.95l6.01,5.68c0,0,13.78-9.65,19.12-9.73c0.38-0.01,0.74,0.02,1.09,0.07
				c4.72,0.67,7.6,6.12,6.77,11.35c-0.89,5.64-0.73,11.87-6.16,12.88c-5.43,1.02-29.34,6.82-29.34,6.82L283.49,82.1l3.08-2.15
				l6.87-4.81l1.39-0.97l3.02,2.85l1.75,1.65L305.86,84.58z"/>
			<linearGradient id="SVGID_19_" gradientUnits="userSpaceOnUse" x1="325.5164" y1="79.952" x2="325.0302" y2="97.6198">
				<stop  offset="0" style="stop-color:#7B6ED6"/>
				<stop  offset="0.4804" style="stop-color:#796DD5"/>
				<stop  offset="0.6535" style="stop-color:#7268D0"/>
				<stop  offset="0.7768" style="stop-color:#6760C9"/>
				<stop  offset="0.8765" style="stop-color:#5655BE"/>
				<stop  offset="0.961" style="stop-color:#4047B0"/>
				<stop  offset="1" style="stop-color:#333EA8"/>
			</linearGradient>
			<path class="st21" d="M322.76,80.44l15.63,6.11c-0.35-0.05-0.71-0.08-1.09-0.07c-5.35,0.08-19.12,9.73-19.12,9.73l-6.01-5.68
				L322.76,80.44z"/>
			<linearGradient id="SVGID_20_" gradientUnits="userSpaceOnUse" x1="221.0026" y1="117.196" x2="339.0072" y2="117.196">
				<stop  offset="0" style="stop-color:#7B6ED6"/>
				<stop  offset="0.4804" style="stop-color:#796DD5"/>
				<stop  offset="0.6535" style="stop-color:#7268D0"/>
				<stop  offset="0.7768" style="stop-color:#6760C9"/>
				<stop  offset="0.8765" style="stop-color:#5655BE"/>
				<stop  offset="0.961" style="stop-color:#4047B0"/>
				<stop  offset="1" style="stop-color:#333EA8"/>
			</linearGradient>
			<path class="st22" d="M339.01,110.79l-9.08,24.72l-1.22,24.07c0,0-1.06,0.19-2.91,0.45c-8.66,1.24-34.6,4.19-50.82-1.91
				l6.32-29.91l-2.92-23.59l-35.25,3.9L221,79.95l2.95-2.25l6.78-5.16l20.91,20.42l32.72-14.3c1.19,0.86,2.22,1.28,2.22,1.28
				l-3.08,2.15l26.17,35.51C309.67,117.61,333.58,111.81,339.01,110.79z"/>
			<linearGradient id="SVGID_21_" gradientUnits="userSpaceOnUse" x1="272.0941" y1="67.3776" x2="293.4481" y2="67.3776">
				<stop  offset="0" style="stop-color:#F7BE86"/>
				<stop  offset="0.3293" style="stop-color:#F7BC83"/>
				<stop  offset="0.5448" style="stop-color:#F7B67B"/>
				<stop  offset="0.7276" style="stop-color:#F7AC6C"/>
				<stop  offset="0.8912" style="stop-color:#F79E57"/>
				<stop  offset="1" style="stop-color:#F79244"/>
			</linearGradient>
			<path class="st23" d="M293.45,75.14l-6.87,4.81c0,0-1.03-0.42-2.22-1.28c-1.55-1.11-3.38-2.94-3.61-5.52
				c-0.3-3.46-6.14-9.1-8.05-12.46c-0.61-1.07-0.83-1.91-0.33-2.37c0.63-0.6,2.03-1.34,3.67-2c3.63-1.44,8.48-2.43,8.92-0.18
				c0.01,0.05,0.03,0.12,0.05,0.18c0.21,0.88,0.82,2.48,1.64,4.37C289.13,66.49,293.45,75.14,293.45,75.14z"/>
			<linearGradient id="SVGID_22_" gradientUnits="userSpaceOnUse" x1="283.4942" y1="108.8075" x2="339.0072" y2="108.8075">
				<stop  offset="0" style="stop-color:#3C0887"/>
				<stop  offset="0.3227" style="stop-color:#3F0987"/>
				<stop  offset="0.5338" style="stop-color:#470E87"/>
				<stop  offset="0.7129" style="stop-color:#561588"/>
				<stop  offset="0.8732" style="stop-color:#6B1F89"/>
				<stop  offset="1" style="stop-color:#822A8A"/>
			</linearGradient>
			<path class="st24" d="M329.93,135.51c-40.05-8.5-46.43-53.41-46.43-53.41l26.18,35.53l29.34-6.84L329.93,135.51z"/>
		</g>
		<g>
			<linearGradient id="SVGID_23_" gradientUnits="userSpaceOnUse" x1="296.6399" y1="71.931" x2="324.6991" y2="71.931">
				<stop  offset="0" style="stop-color:#F7BE86"/>
				<stop  offset="0.3293" style="stop-color:#F7BC83"/>
				<stop  offset="0.5448" style="stop-color:#F7B67B"/>
				<stop  offset="0.7276" style="stop-color:#F7AC6C"/>
				<stop  offset="0.8912" style="stop-color:#F79E57"/>
				<stop  offset="1" style="stop-color:#F79244"/>
			</linearGradient>
			<path class="st25" d="M322.53,58.61c0.85-0.23,1.7-0.06,2.05,1.29c0.79,3.09-2.68,6.81-2.68,6.81l0.86,13.73l-10.59,10.09
				l4.15-11.87l-10.45,0.69l-6.26-0.69l-1.75-1.65c0,0-1.22-11.39-1.22-18.07c0-1.54,0.06-2.83,0.23-3.67l0.05-0.32
				c7.32,1.24,17.48-1.62,17.48-1.62s1.42,13.87,3.37,14.11c1.95,0.23,2.55-7.54,2.55-7.54S321.43,58.91,322.53,58.61z"/>
			<path class="st10" d="M322.62,48.53l-0.08,10.08c-1.1,0.3-2.21,1.29-2.21,1.29s-0.6,7.77-2.55,7.54
				c-1.95-0.24-3.37-14.11-3.37-14.11s-10.16,2.86-17.48,1.62v-0.01c-2.3-0.38-4.31-1.17-5.64-2.58c-5.6-5.9-3.65-9.24,4.37-7.42
				C303.67,46.77,320.31,37.11,322.62,48.53z"/>
			<polygon class="st26" points="316.31,78.67 312.17,90.53 305.86,84.58 305.86,79.35 			"/>
			<path class="st10" d="M296.22,56.78c1.61-0.81,3.29-0.9,4.98-0.29c1.03,0.37,0.25,1.9-0.77,1.53c-1.07-0.38-2.27-0.31-3.28,0.2
				C296.18,58.7,295.24,57.28,296.22,56.78z"/>
			
				<ellipse transform="matrix(0.9986 -0.0522 0.0522 0.9986 -2.7514 16.3631)" class="st10" cx="311.77" cy="60.84" rx="1.23" ry="1.82"/>
			<path class="st10" d="M313.92,56.37c-1.69-0.64-3.36-0.56-4.99,0.23c-0.99,0.48-0.06,1.91,0.92,1.44
				c1.02-0.49,2.23-0.54,3.29-0.14C314.16,58.28,314.95,56.76,313.92,56.37z"/>
			<path class="st26" d="M302.05,66.48c0.55-2.58,1.88-5.21,2.78-7.7c0.19-0.52,0.95-0.13,0.76,0.38c-0.57,1.57-1.14,3.13-1.71,4.7
				c-0.2,0.54-0.68,1.44-0.73,2.01c-0.19,1.95,0.71,1.8,1.72,2.27c0.5,0.23,0.11,1-0.38,0.76
				C303.25,68.33,301.68,68.25,302.05,66.48z"/>
			<path class="st10" d="M301.11,61.05c-0.8-0.64-1.71-1.07-2.73-1.2c-0.63-0.08-0.89,0.89-0.25,0.97c0.52,0.07,1,0.21,1.46,0.43
				c-0.53,0.17-1.07,0.35-1.6,0.52c-0.61,0.2-0.35,1.17,0.26,0.97c0.88-0.29,1.76-0.57,2.64-0.86
				C301.2,61.78,301.42,61.3,301.11,61.05z"/>
			<ellipse class="st27" cx="305.24" cy="74.1" rx="2.22" ry="3.21"/>
		</g>
	</g>
	<g>
		<linearGradient id="SVGID_24_" gradientUnits="userSpaceOnUse" x1="406.5014" y1="451.8889" x2="407.58" y2="377.4619">
			<stop  offset="0" style="stop-color:#8AEBD6"/>
			<stop  offset="0.4615" style="stop-color:#89E9D7"/>
			<stop  offset="0.6276" style="stop-color:#84E2DA"/>
			<stop  offset="0.7461" style="stop-color:#7DD7DE"/>
			<stop  offset="0.8419" style="stop-color:#72C6E5"/>
			<stop  offset="0.9229" style="stop-color:#64B0EE"/>
			<stop  offset="0.9944" style="stop-color:#5395F9"/>
			<stop  offset="1" style="stop-color:#5193FA"/>
		</linearGradient>
		<path class="st28" d="M611.75,373.45H210.49c0,0-21.59,14.33,10.51,16.76c32.1,2.43,82.16,4.72,80.93,15.64
			c-1.24,10.92-30.22,8.76-30.22,28.04c0,19.28,133.7,14.83,133.7,14.83s75.53,0.99,86.29-11.78
			c10.76-12.76-30.45-24.45-22.97-29.48c7.48-5.03,61.77,10.07,69.86-2.16c8.09-12.22-1.62-19.96,13.3-21.57
			S609.24,387.97,611.75,373.45z"/>
		<linearGradient id="SVGID_25_" gradientUnits="userSpaceOnUse" x1="581.4157" y1="447.1124" x2="581.4157" y2="381.5843">
			<stop  offset="0" style="stop-color:#8AEBD6"/>
			<stop  offset="0.4615" style="stop-color:#89E9D7"/>
			<stop  offset="0.6276" style="stop-color:#84E2DA"/>
			<stop  offset="0.7461" style="stop-color:#7DD7DE"/>
			<stop  offset="0.8419" style="stop-color:#72C6E5"/>
			<stop  offset="0.9229" style="stop-color:#64B0EE"/>
			<stop  offset="0.9944" style="stop-color:#5395F9"/>
			<stop  offset="1" style="stop-color:#5193FA"/>
		</linearGradient>
		<ellipse class="st29" cx="581.42" cy="398.84" rx="30.34" ry="8.63"/>
		<linearGradient id="SVGID_26_" gradientUnits="userSpaceOnUse" x1="258.4045" y1="447.1124" x2="258.4045" y2="381.5843">
			<stop  offset="0" style="stop-color:#8AEBD6"/>
			<stop  offset="0.4615" style="stop-color:#89E9D7"/>
			<stop  offset="0.6276" style="stop-color:#84E2DA"/>
			<stop  offset="0.7461" style="stop-color:#7DD7DE"/>
			<stop  offset="0.8419" style="stop-color:#72C6E5"/>
			<stop  offset="0.9229" style="stop-color:#64B0EE"/>
			<stop  offset="0.9944" style="stop-color:#5395F9"/>
			<stop  offset="1" style="stop-color:#5193FA"/>
		</linearGradient>
		<ellipse class="st30" cx="258.4" cy="406.3" rx="26.52" ry="6.56"/>
		<ellipse class="st0" cx="410.4" cy="431.88" rx="30.12" ry="5.8"/>
	</g>
	<g>
		<g>
			
				<linearGradient id="SVGID_27_" gradientUnits="userSpaceOnUse" x1="360.8077" y1="325.3714" x2="466.1603" y2="325.3714" gradientTransform="matrix(0.9797 0.2002 -0.2002 0.9797 63.9508 -75.1856)">
				<stop  offset="0" style="stop-color:#31D1D6"/>
				<stop  offset="0.3733" style="stop-color:#32CED8"/>
				<stop  offset="0.6175" style="stop-color:#36C6DF"/>
				<stop  offset="0.824" style="stop-color:#3CB7EB"/>
				<stop  offset="1" style="stop-color:#45A3FA"/>
			</linearGradient>
			<path class="st31" d="M450.23,296.29c-6.18-14.13-17.77-22.93-34.77-26.4c-1.85-0.38-3.66-0.68-5.43-0.9
				c-15-1.9-27.37,1.68-37.11,10.74c-10.9,10.12-18.94,27.89-24.14,53.31c-3.18,15.57-4.07,29.04-2.66,40.41h37.16
				c-0.47-6.64,0.84-17.5,3.92-32.56c3.33-16.29,6.63-27.29,9.9-33.01c1.9-3.32,4.05-5.51,6.45-6.57c1.73-0.77,3.6-0.95,5.59-0.54
				c4.76,0.98,7.5,4.85,8.22,11.61c0.72,6.77-0.54,18.07-3.77,33.9c-2.43,11.87-4.87,20.92-7.31,27.17h40.74
				c1.89-5.85,3.55-12.29,4.98-19.32c0.95-4.65,1.7-9.11,2.24-13.38C456.57,322.55,455.23,307.73,450.23,296.29z"/>
			<linearGradient id="SVGID_28_" gradientUnits="userSpaceOnUse" x1="390.7731" y1="380.5892" x2="389.6944" y2="325.5779">
				<stop  offset="0" style="stop-color:#F9E6D9"/>
				<stop  offset="0.121" style="stop-color:#FCF1EA"/>
				<stop  offset="0.2698" style="stop-color:#FEF9F6"/>
				<stop  offset="0.4751" style="stop-color:#FFFEFD"/>
				<stop  offset="1" style="stop-color:#FFFFFF"/>
			</linearGradient>
			<path class="st32" d="M439.82,294.17c-5.55-12.69-15.48-21.09-29.79-25.18c-1.61-0.46-3.27-0.87-4.99-1.22
				c-17.46-3.57-31.64-0.29-42.54,9.84c-10.89,10.13-18.94,27.9-24.13,53.31c-1.06,5.17-1.86,10.12-2.41,14.83
				c-1.21,10.35-1.2,19.59,0.04,27.7h37.11c-0.05-0.24-0.08-0.48-0.11-0.73c-0.78-6.47,0.48-17.79,3.78-33.95
				c3.33-16.29,6.63-27.29,9.91-33c3.27-5.72,7.28-8.09,12.04-7.11c1.95,0.4,3.56,1.28,4.82,2.65c1.85,1.98,2.97,4.96,3.4,8.95
				c0.72,6.77-0.54,18.07-3.77,33.9c-2.72,13.28-5.45,23.04-8.19,29.29h40.93c2.16-6.4,4.05-13.54,5.67-21.43
				C446.58,327.58,445.99,308.3,439.82,294.17z"/>
		</g>
		<g>
			<polygon class="st33" points="468.19,198.87 467.94,199.06 441.81,219.4 425.5,232.09 411.92,269.67 408.15,268.31 
				422.14,229.64 465.74,195.71 			"/>
		</g>
		<linearGradient id="SVGID_29_" gradientUnits="userSpaceOnUse" x1="441.81" y1="245.285" x2="484.5118" y2="245.285">
			<stop  offset="0" style="stop-color:#7B6ED6"/>
			<stop  offset="0.4804" style="stop-color:#796DD5"/>
			<stop  offset="0.6535" style="stop-color:#7268D0"/>
			<stop  offset="0.7768" style="stop-color:#6760C9"/>
			<stop  offset="0.8765" style="stop-color:#5655BE"/>
			<stop  offset="0.961" style="stop-color:#4047B0"/>
			<stop  offset="1" style="stop-color:#333EA8"/>
		</linearGradient>
		<path class="st34" d="M480.71,283.21c-2.97,3.53-7.02,5.95-10.99,8.3l-0.27-0.47c1.57-2.01,3.23-4.37,2.76-6.88
			c-0.33-1.71-1.59-3.07-2.88-4.22c-2.19-1.93-4.63-3.56-6.72-5.59c-2.09-2.03-3.86-4.58-4.2-7.47c-0.44-3.8,1.61-7.39,2.41-11.13
			c0.32-1.5,0.43-3.1-0.17-4.51c-1.34-3.18-5.39-3.91-8.6-5.19c-2.87-1.16-5.57-3.31-6.37-6.3c-1.16-4.34,1.93-8.78,1.51-13.25
			c-0.29-3.12-2.51-5.91-5.38-7.1l26.13-20.34c4.43,3.84,8.25,8.93,8.3,14.74c0.02,3.68-1.47,7.18-2.53,10.7
			c-0.42,1.42-0.78,2.9-0.52,4.35c0.41,2.22,2.18,3.9,3.81,5.47c3.37,3.23,6.76,7.16,6.7,11.83c-0.06,5.24-4.53,9.91-3.75,15.09
			c0.5,3.31,3.05,5.95,4.07,9.13C485.42,274.77,483.68,279.68,480.71,283.21z"/>
	</g>
</g>
<g id="DESIGNED_BY_FREEPIK">
	<g>
		<g id="XMLID_58_">
			<g id="XMLID_82_">
				<path id="XMLID_98_" class="st35" d="M385.1,471.33c-0.43,0.44-0.8,0.93-1.11,1.45l-0.47-0.24c-0.07-0.3-0.35-0.5-0.66-0.47
					c-0.33,0.04-0.57,0.34-0.53,0.67c0.04,0.33,0.34,0.57,0.67,0.53c0.07-0.01,0.13-0.03,0.18-0.05l0.45,0.23
					c-0.25,0.55-0.43,1.14-0.54,1.74l0.75,0.13c0.23-1.31,0.85-2.51,1.79-3.47L385.1,471.33z"/>
				<path id="XMLID_97_" class="st35" d="M390.59,469.03c-0.17,0-0.34,0.01-0.51,0.02l-0.07-0.63c0.19-0.15,0.3-0.39,0.27-0.64
					c-0.05-0.39-0.4-0.67-0.8-0.63c-0.39,0.05-0.67,0.4-0.63,0.8c0.03,0.25,0.19,0.46,0.4,0.56l0.07,0.62
					c-0.71,0.12-1.4,0.33-2.06,0.65l0.33,0.68c0.93-0.45,1.94-0.67,3-0.67c0.5,0,0.99,0.05,1.48,0.16l0.16-0.74
					C391.69,469.09,391.14,469.03,390.59,469.03z"/>
				<path id="XMLID_96_" class="st35" d="M397.19,471.58c0.33-0.04,0.57-0.34,0.53-0.67c-0.04-0.33-0.34-0.57-0.67-0.53
					c-0.31,0.04-0.54,0.3-0.53,0.61l-0.42,0.36c-0.42-0.43-0.89-0.81-1.41-1.14l-0.4,0.64c1.13,0.71,2.02,1.73,2.56,2.93l0.69-0.31
					c-0.25-0.55-0.57-1.07-0.94-1.55l0.4-0.35C397.06,471.58,397.13,471.58,397.19,471.58z"/>
				<path id="XMLID_95_" class="st35" d="M390.04,479.24c-0.39,0.02-0.77,0.03-1.16,0.03c-0.88,0-1.73-0.06-2.48-0.18
					c-0.39-0.06-0.85-0.15-1.27-0.29c1.05,1.86,3.07,3.13,5.39,3.13c2.86,0,5.26-1.92,5.95-4.5c-0.68,0.45-1.51,0.83-2.46,1.12
					C392.84,478.91,391.46,479.15,390.04,479.24z"/>
				<path id="XMLID_88_" class="st35" d="M390.59,470.54c-3.35,0-6.08,2.67-6.08,5.94c0,0.43,0.05,0.85,0.14,1.26
					c0.67,0.48,2.71,0.89,5.35,0.73c2.88-0.17,5.3-0.96,6.67-2.16c-0.01-0.19-0.02-0.39-0.05-0.58
					C396.24,472.78,393.65,470.54,390.59,470.54z M388.43,477.06c-1.02,0-1.85-0.83-1.85-1.85c0-1.02,0.83-1.85,1.85-1.85
					c1.02,0,1.85,0.83,1.85,1.85C390.28,476.23,389.45,477.06,388.43,477.06z M393.17,476.15c-0.75,0-1.36-0.61-1.36-1.36
					c0-0.75,0.61-1.36,1.36-1.36c0.75,0,1.36,0.61,1.36,1.36C394.53,475.54,393.92,476.15,393.17,476.15z"/>
			</g>
			<path id="XMLID_80_" class="st35" d="M406.6,472.41c-0.29-0.12-0.81-0.31-1.38-0.24c-0.55,0.07-0.84,0.34-0.84,1.01v0.87h2.23
				v1.72h-2.23v5.45h-1.93v-5.45h-1.34v-1.72h1.34v-0.89c0-1.68,0.9-2.78,2.57-2.78c0.64,0,1.16,0.12,1.59,0.31L406.6,472.41z"/>
			<path id="XMLID_78_" class="st35" d="M411.3,475.74c-0.18-0.03-0.36-0.05-0.53-0.05c-0.9,0-1.51,0.55-1.51,1.61v3.91h-1.93v-7.17
				h1.87v0.78c0.45-0.67,1.14-0.98,2.02-0.98c0.41,0,0.85,0.13,1.09,0.34L411.3,475.74z"/>
			<path id="XMLID_75_" class="st35" d="M418.97,477.62c0,0.22-0.01,0.49-0.04,0.65h-5.08c0.21,1.04,0.93,1.49,1.84,1.49
				c0.62,0,1.3-0.25,1.81-0.69l1.13,1.24c-0.81,0.75-1.85,1.09-3.06,1.09c-2.2,0-3.72-1.5-3.72-3.75c0-2.26,1.48-3.8,3.63-3.8
				C417.54,473.85,418.96,475.39,418.97,477.62z M413.85,476.96h3.18c-0.18-0.92-0.73-1.44-1.56-1.44
				C414.55,475.52,414.02,476.07,413.85,476.96z"/>
			<path id="XMLID_72_" class="st35" d="M426.62,477.62c0,0.22-0.01,0.49-0.04,0.65h-5.08c0.21,1.04,0.93,1.49,1.84,1.49
				c0.62,0,1.3-0.25,1.81-0.69l1.13,1.24c-0.81,0.75-1.85,1.09-3.06,1.09c-2.2,0-3.72-1.5-3.72-3.75c0-2.26,1.48-3.8,3.63-3.8
				C425.2,473.85,426.61,475.39,426.62,477.62z M421.5,476.96h3.18c-0.18-0.92-0.73-1.44-1.56-1.44
				C422.21,475.52,421.67,476.07,421.5,476.96z"/>
			<path id="XMLID_69_" class="st35" d="M434.96,477.63c0,2.15-1.49,3.77-3.47,3.77c-0.96,0-1.64-0.38-2.11-0.93v3.71h-1.92v-10.13
				h1.89v0.79c0.47-0.58,1.15-0.98,2.14-0.98C433.47,473.85,434.96,475.48,434.96,477.63z M429.29,477.63
				c0,1.13,0.75,1.98,1.84,1.98c1.14,0,1.85-0.88,1.85-1.98c0-1.1-0.71-1.98-1.85-1.98C430.03,475.65,429.29,476.5,429.29,477.63z"
				/>
			<path id="XMLID_66_" class="st35" d="M438.07,471.7c0,0.7-0.54,1.23-1.24,1.23c-0.7,0-1.23-0.53-1.23-1.23
				c0-0.7,0.53-1.24,1.23-1.24C437.53,470.46,438.07,471.01,438.07,471.7z M437.81,481.22h-1.93v-7.17h1.93V481.22z"/>
			<path id="XMLID_64_" class="st35" d="M441.03,476.6l2.7-2.55h2.37l-3.48,3.38l3.5,3.8h-2.38l-2.72-2.9v2.9h-1.93v-10.66h1.93
				V476.6z"/>
		</g>
		<g>
			<path class="st35" d="M309.41,481.15v-1.05c-0.53,0.72-1.39,1.23-2.39,1.23c-1.85,0-3.15-1.41-3.15-3.71
				c0-2.26,1.29-3.72,3.15-3.72c0.95,0,1.82,0.47,2.39,1.25v-3.76h1.1v9.77H309.41z M309.41,479.24v-3.21
				c-0.4-0.62-1.24-1.14-2.12-1.14c-1.42,0-2.27,1.17-2.27,2.74c0,1.57,0.85,2.72,2.27,2.72
				C308.17,480.35,309.02,479.85,309.41,479.24z"/>
			<path class="st35" d="M311.93,477.61c0-2.05,1.46-3.71,3.49-3.71c2.14,0,3.4,1.67,3.4,3.79v0.28h-5.73
				c0.09,1.33,1.03,2.45,2.55,2.45c0.81,0,1.63-0.32,2.18-0.89l0.53,0.72c-0.7,0.7-1.65,1.08-2.81,1.08
				C313.44,481.33,311.93,479.82,311.93,477.61z M315.4,474.81c-1.51,0-2.26,1.27-2.31,2.36h4.64
				C317.72,476.12,317.01,474.81,315.4,474.81z"/>
			<path class="st35" d="M319.61,480.22l0.57-0.79c0.47,0.54,1.36,1.01,2.33,1.01c1.08,0,1.67-0.51,1.67-1.22
				c0-1.71-4.38-0.66-4.38-3.28c0-1.1,0.95-2.04,2.64-2.04c1.2,0,2.05,0.45,2.62,1.03l-0.51,0.76c-0.42-0.51-1.2-0.89-2.11-0.89
				c-0.97,0-1.57,0.48-1.57,1.11c0,1.55,4.38,0.53,4.38,3.28c0,1.19-0.95,2.14-2.78,2.14C321.31,481.33,320.32,480.98,319.61,480.22
				z"/>
			<path class="st35" d="M326.48,472.34c0-0.41,0.34-0.75,0.73-0.75c0.41,0,0.75,0.34,0.75,0.75c0,0.41-0.34,0.73-0.75,0.73
				C326.81,473.07,326.48,472.75,326.48,472.34z M326.67,481.15v-7.07h1.1v7.07H326.67z"/>
			<path class="st35" d="M329.58,482.97l0.56-0.82c0.59,0.7,1.29,0.97,2.3,0.97c1.17,0,2.27-0.57,2.27-2.12v-1.01
				c-0.51,0.72-1.38,1.26-2.37,1.26c-1.85,0-3.15-1.38-3.15-3.66c0-2.27,1.29-3.68,3.15-3.68c0.95,0,1.8,0.47,2.37,1.25v-1.07h1.1
				v6.87c0,2.34-1.64,3.08-3.37,3.08C331.24,484.03,330.42,483.79,329.58,482.97z M334.71,479.12v-3.09
				c-0.38-0.62-1.23-1.14-2.11-1.14c-1.42,0-2.27,1.13-2.27,2.7c0,1.55,0.85,2.7,2.27,2.7
				C333.48,480.28,334.33,479.73,334.71,479.12z"/>
			<path class="st35" d="M342.41,481.15v-4.63c0-1.24-0.63-1.64-1.58-1.64c-0.86,0-1.68,0.53-2.09,1.1v5.17h-1.1v-7.07h1.1v1.03
				c0.5-0.59,1.46-1.2,2.52-1.2c1.48,0,2.26,0.75,2.26,2.29v4.97H342.41z"/>
			<path class="st35" d="M344.93,477.61c0-2.05,1.46-3.71,3.49-3.71c2.14,0,3.4,1.67,3.4,3.79v0.28h-5.73
				c0.09,1.33,1.03,2.45,2.55,2.45c0.81,0,1.63-0.32,2.18-0.89l0.53,0.72c-0.7,0.7-1.66,1.08-2.81,1.08
				C346.44,481.33,344.93,479.82,344.93,477.61z M348.4,474.81c-1.51,0-2.26,1.27-2.31,2.36h4.64
				C350.72,476.12,350.02,474.81,348.4,474.81z"/>
			<path class="st35" d="M358.35,481.15v-1.05c-0.53,0.72-1.39,1.23-2.39,1.23c-1.85,0-3.15-1.41-3.15-3.71
				c0-2.26,1.29-3.72,3.15-3.72c0.95,0,1.82,0.47,2.39,1.25v-3.76h1.1v9.77H358.35z M358.35,479.24v-3.21
				c-0.4-0.62-1.25-1.14-2.12-1.14c-1.42,0-2.27,1.17-2.27,2.74c0,1.57,0.85,2.72,2.27,2.72
				C357.1,480.35,357.95,479.85,358.35,479.24z"/>
			<path class="st35" d="M364.69,481.15v-9.77h1.1v3.76c0.57-0.78,1.42-1.25,2.39-1.25c1.85,0,3.15,1.46,3.15,3.72
				c0,2.3-1.3,3.71-3.15,3.71c-1,0-1.86-0.51-2.39-1.23v1.05H364.69z M367.9,480.35c1.44,0,2.29-1.16,2.29-2.72
				c0-1.57-0.85-2.74-2.29-2.74c-0.86,0-1.73,0.53-2.11,1.14v3.21C366.17,479.85,367.04,480.35,367.9,480.35z"/>
			<path class="st35" d="M372.53,482.93c0.16,0.07,0.42,0.12,0.6,0.12c0.48,0,0.81-0.16,1.05-0.75l0.47-1.07l-2.96-7.15h1.19
				l2.36,5.8l2.34-5.8h1.2l-3.54,8.51c-0.42,1.03-1.14,1.42-2.08,1.44c-0.23,0-0.6-0.04-0.81-0.1L372.53,482.93z"/>
		</g>
	</g>
</g>
</svg>
